<svg xmlns="http://www.w3.org/2000/svg" xmlns:xlink="http://www.w3.org/1999/xlink" viewBox="0,0,256,256" width="48px" height="48px" fill-rule="nonzero"><defs><linearGradient x1="3.648" y1="6.21" x2="17.79" y2="20.352" gradientUnits="userSpaceOnUse" id="color-1"><stop offset="0" stop-color="#5865f2"></stop><stop offset="1" stop-color="#2b2d31"></stop></linearGradient><linearGradient x1="3.648" y1="6.21" x2="17.79" y2="20.352" gradientUnits="userSpaceOnUse" id="color-2"><stop offset="0" stop-color="#5865f2"></stop><stop offset="0.493" stop-color="#ffffff" stop-opacity="0"></stop><stop offset="0.997" stop-color="#2b2d31"></stop></linearGradient></defs><g fill="none" fill-rule="nonzero" stroke="none" stroke-width="1" stroke-linecap="butt" stroke-linejoin="miter" stroke-miterlimit="10" stroke-dasharray="" stroke-dashoffset="0" font-family="none" font-weight="none" font-size="none" text-anchor="none" style="mix-blend-mode: normal"><g transform="scale(10.66667,10.66667)"><path d="M12,2c-5.523,0 -10,4.477 -10,10c0,1.592 0.382,3.091 1.043,4.427l-1.005,4.019c-0.229,0.915 0.6,1.745 1.516,1.516l4.019,-1.005c1.336,0.661 2.835,1.043 4.427,1.043c5.523,0 10,-4.477 10,-10c0,-5.523 -4.477,-10 -10,-10z" fill="url(#color-1)"></path><path d="M12,2.5c5.238,0 9.5,4.262 9.5,9.5c0,5.238 -4.262,9.5 -9.5,9.5c-1.462,0 -2.877,-0.334 -4.205,-0.991l-0.165,-0.082l-0.178,0.045l-4.019,1.005c-0.062,0.015 -0.125,0.023 -0.187,0.023c-0.229,0 -0.443,-0.106 -0.588,-0.292c-0.083,-0.107 -0.212,-0.332 -0.135,-0.641l1.005,-4.019l0.045,-0.178l-0.082,-0.165c-0.657,-1.328 -0.991,-2.743 -0.991,-4.205c0,-5.238 4.262,-9.5 9.5,-9.5M12,2c-5.523,0 -10,4.477 -10,10c0,1.592 0.382,3.091 1.043,4.427l-1.005,4.019c-0.202,0.811 0.425,1.554 1.208,1.554c0.101,0 0.204,-0.012 0.309,-0.038l4.019,-1.005c1.335,0.661 2.834,1.043 4.426,1.043c5.523,0 10,-4.477 10,-10c0,-5.523 -4.477,-10 -10,-10z" fill="url(#color-2)"></path></g></g></svg>